<?xml version="1.0" standalone="no"?>
<!DOCTYPE svg PUBLIC "-//W3C//DTD SVG 20010904//EN"
 "http://www.w3.org/TR/2001/REC-SVG-20010904/DTD/svg10.dtd">
<svg version="1.0" xmlns="http://www.w3.org/2000/svg"
 width="120.000000pt" height="120.000000pt" viewBox="0 0 120.000000 120.000000"
 preserveAspectRatio="xMidYMid meet">

<g transform="translate(0.000000,120.000000) scale(0.100000,-0.100000)"
fill="#000000" stroke="none">
<path d="M0 1045 l0 -156 286 146 c163 83 298 145 313 145 16 0 78 -25 140
-55 171 -84 436 -205 449 -205 9 0 12 41 12 140 l0 140 -600 0 -600 0 0 -155z"/>
<path d="M295 1015 c-184 -91 -291 -150 -293 -161 -2 -9 0 -14 5 -12 4 3 138
69 297 148 287 143 288 143 325 130 20 -7 155 -71 300 -142 145 -70 265 -128
267 -128 2 0 4 6 4 14 0 13 -574 296 -601 296 -8 0 -144 -65 -304 -145z"/>
<path d="M297 949 l-297 -149 2 -218 3 -217 160 -72 c88 -40 192 -86 232 -103
39 -16 101 -44 137 -60 l66 -31 83 36 c45 20 111 49 147 65 36 16 130 57 210
90 132 56 179 80 155 80 -5 0 -27 -9 -49 -19 -38 -18 -263 -114 -464 -199
l-83 -35 -292 131 -292 130 -3 204 -3 205 295 148 295 149 296 -143 c163 -78
299 -140 302 -137 3 3 -54 34 -128 70 -74 35 -210 100 -302 145 -93 44 -169
81 -170 80 -1 0 -136 -67 -300 -150z"/>
<path d="M730 886 c0 -21 -18 -30 -34 -17 -19 16 -60 -30 -51 -59 5 -16 2 -23
-14 -27 -30 -8 -30 -78 0 -86 16 -4 19 -11 14 -27 -4 -12 -1 -27 5 -35 10 -12
9 -15 -3 -15 -9 0 -19 -9 -22 -20 -3 -11 -10 -20 -15 -20 -5 0 -7 7 -4 15 4 9
0 15 -10 15 -9 0 -16 -5 -16 -12 0 -6 -6 -3 -14 8 -14 17 -17 18 -42 4 -29
-16 -59 -83 -49 -109 4 -11 10 -10 26 7 11 12 26 22 34 22 7 0 18 12 23 28 10
25 10 25 11 4 1 -21 5 -23 38 -20 33 3 39 7 47 36 5 19 14 31 21 28 7 -2 17 0
23 6 13 13 32 2 32 -18 0 -10 12 -14 40 -14 28 0 40 4 40 14 0 20 18 30 33 18
8 -7 21 -3 40 14 23 20 27 27 17 39 -14 16 -5 35 16 35 10 0 14 12 14 40 0 28
-4 40 -14 40 -21 0 -30 18 -17 33 15 19 -36 72 -54 57 -16 -14 -35 -5 -35 16
0 10 -12 14 -40 14 -28 0 -40 -4 -40 -14z m60 -19 c0 -17 47 -40 55 -27 10 17
36 -1 30 -21 -9 -26 3 -59 21 -59 8 0 14 -9 14 -20 0 -11 -6 -20 -12 -20 -20
0 -38 -46 -24 -60 8 -8 7 -13 -4 -20 -9 -6 -18 -6 -24 0 -10 10 -47 -6 -59
-26 -10 -18 -27 -18 -27 -1 0 16 -58 39 -66 26 -8 -14 -26 1 -20 17 7 19 -14
64 -31 64 -17 0 -17 27 1 37 19 12 37 49 30 66 -6 17 11 32 20 18 7 -11 66 16
66 30 0 5 7 9 15 9 8 0 15 -6 15 -13z"/>
<path d="M715 795 c-51 -50 -15 -135 58 -135 45 0 77 34 77 82 0 70 -86 103
-135 53z m101 -21 c33 -49 -9 -107 -63 -88 -62 21 -48 114 17 114 21 0 35 -8
46 -26z"/>
<path d="M890 891 c0 -5 11 -11 23 -15 33 -8 75 -43 92 -76 22 -43 48 -179 36
-193 -5 -7 -9 -34 -9 -61 0 -55 -6 -63 -47 -68 -27 -3 -30 -7 -33 -40 l-3 -38
-110 0 c-60 0 -109 3 -109 6 0 3 7 27 16 55 16 49 13 99 -7 99 -7 0 -8 -12 -4
-32 l6 -33 -14 30 c-8 17 -21 36 -30 43 -14 12 -15 10 -4 -18 31 -83 -78 -108
-286 -64 -38 8 -90 14 -117 14 -50 0 -74 -15 -49 -31 11 -6 11 -11 1 -21 -6
-6 -12 -18 -12 -25 0 -10 5 -10 25 -1 20 9 45 7 125 -11 74 -17 122 -22 189
-20 84 4 92 6 122 34 31 30 31 30 24 5 -4 -14 -8 -29 -9 -35 0 -6 50 -11 131
-13 l132 -3 3 37 c3 32 7 38 38 48 34 11 35 13 38 69 2 44 7 57 19 57 16 0 16
1 -7 95 -31 131 -51 165 -110 195 -43 22 -60 25 -60 11z"/>
<path d="M196 618 c-8 -24 -17 -52 -18 -62 -5 -29 21 -31 32 -2 12 33 22 34
14 1 -7 -28 7 -33 26 -10 11 13 15 13 21 3 5 -7 26 -13 49 -14 34 -1 41 3 46
22 3 13 12 28 20 35 20 16 17 29 -6 29 -13 0 -25 -12 -35 -37 -8 -20 -18 -33
-22 -30 -3 4 -1 13 6 20 14 17 4 47 -15 47 -7 0 -23 -10 -34 -22 l-21 -23 10
28 c6 16 11 35 11 43 0 23 -20 16 -30 -11 -5 -14 -12 -25 -15 -25 -3 0 -3 11
1 25 11 44 -23 30 -40 -17z"/>
<path d="M446 598 c-10 -15 -14 -17 -10 -5 10 28 -25 20 -36 -9 -13 -34 -6
-44 35 -44 28 0 35 5 44 31 6 18 11 36 11 40 0 17 -28 8 -44 -13z"/>
<path d="M0 165 l0 -165 600 0 600 0 0 160 0 159 -102 -43 c-455 -193 -492
-207 -515 -201 -13 3 -130 53 -261 112 -130 58 -256 114 -279 124 l-43 18 0
-164z m776 -66 c-48 -26 -124 -53 -111 -40 11 11 124 59 140 60 6 0 -7 -9 -29
-20z m-281 -15 c20 -8 35 -17 32 -20 -3 -3 -22 4 -44 15 -46 24 -40 27 12 5z"/>
</g>
</svg>
