<?xml version="1.0" encoding="UTF-8" standalone="no"?>
<svg
   version="1.0"
   width="150pt"
   height="150pt"
   viewBox="0 0 150 150"
   preserveAspectRatio="xMidYMid"
   id="svg16"
   sodipodi:docname="logo_white.svg"
   xmlns:inkscape="http://www.inkscape.org/namespaces/inkscape"
   xmlns:sodipodi="http://sodipodi.sourceforge.net/DTD/sodipodi-0.dtd"
   xmlns="http://www.w3.org/2000/svg"
   xmlns:svg="http://www.w3.org/2000/svg">
  <sodipodi:namedview
     id="namedview1170"
     pagecolor="#505050"
     bordercolor="#eeeeee"
     borderopacity="1"
     inkscape:showpageshadow="0"
     inkscape:pageopacity="0"
     inkscape:pagecheckerboard="0"
     inkscape:deskcolor="#505050"
     inkscape:document-units="pt"
     showgrid="false" />
  <defs
     id="defs20" />
  <g
     transform="matrix(0.1,0,0,-0.1,0,150)"
     fill="#000000"
     stroke="none"
     id="g14"
     style="display:none">
    <rect
       style="display:inline;fill:#ffffff;stroke-width:6.50795"
       id="rect901"
       width="1499.8772"
       height="1499.8127"
       x="0.045585155"
       y="-1499.8778"
       transform="scale(1,-1)" />
    <path
       d="m 0,1290 v -210 l 53,31 c 28,17 191,100 362,185 278,139 314,155 349,150 23,-2 183,-76 388,-178 l 348,-173 v 202 203 H 750 0 Z"
       id="path2"
       style="display:inline" />
    <path
       d="M 368,1227 C 100,1094 1,1040 1,1028 c -1,-10 2,-18 5,-18 3,0 171,84 372,187 l 367,186 315,-151 c 173,-83 340,-164 370,-181 64,-36 70,-37 70,-13 0,12 -55,43 -208,116 -284,137 -513,243 -537,249 -13,4 -144,-56 -387,-176 z"
       id="path4"
       style="display:inline" />
    <path
       d="M 417,1181 C 244,1093 83,1010 61,995 L 20,970 22,723 25,476 379,318 c 195,-87 362,-158 371,-158 13,0 225,88 703,292 l 47,21 v 261 261 l -48,19 c -26,11 -159,73 -297,139 -214,102 -404,187 -418,187 -2,0 -146,-72 -320,-159 z m 603,-76 c 8,-21 13,-24 27,-17 40,21 91,-27 79,-74 -5,-18 -2,-26 11,-31 25,-9 33,-23 33,-58 0,-35 -8,-49 -32,-58 -13,-5 -16,-13 -12,-34 7,-38 -33,-78 -71,-71 -21,4 -28,1 -35,-18 -8,-20 -16,-24 -54,-24 -36,0 -47,5 -61,26 -12,19 -20,23 -28,15 -6,-6 -19,-11 -28,-11 -11,0 -22,-13 -29,-34 -11,-35 -31,-46 -82,-46 -20,0 -28,5 -28,17 0,14 -3,13 -16,-5 -8,-12 -21,-22 -29,-22 -7,0 -23,-12 -34,-26 -24,-31 -41,-24 -41,16 0,22 -4,28 -15,24 -8,-4 -31,-3 -49,0 -28,5 -35,12 -38,34 l -4,27 -13,-30 c -7,-16 -18,-33 -24,-37 -18,-11 -75,-10 -99,3 -14,8 -23,8 -31,0 -6,-6 -19,-11 -29,-11 -15,0 -17,5 -13,28 l 6,27 -16,-27 c -9,-16 -23,-28 -32,-28 -36,0 11,161 49,168 13,3 18,-3 19,-20 v -23 l 11,23 c 17,35 38,28 38,-13 0,-32 2,-34 19,-24 25,16 51,5 52,-23 v -23 l 11,23 c 12,25 49,39 70,26 7,-5 21,-7 31,-6 9,2 17,-2 17,-9 0,-8 6,-6 18,4 10,10 27,17 36,17 15,0 17,-5 12,-26 l -7,-27 31,27 c 33,27 55,33 65,16 3,-6 17,-7 31,-4 19,5 24,2 24,-12 0,-16 2,-15 23,4 18,17 22,30 19,62 -3,27 -11,44 -23,51 -28,14 -27,94 1,109 13,7 20,21 20,38 0,44 26,72 65,72 24,0 38,6 45,20 8,15 21,20 56,20 38,0 46,-3 54,-25 z m 159,6 c 41,-21 92,-74 115,-119 7,-15 21,-63 31,-107 28,-130 29,-144 11,-151 -12,-5 -16,-20 -16,-58 0,-60 -13,-83 -61,-105 -30,-14 -34,-21 -37,-59 l -3,-42 -112,1 c -62,1 -137,4 -167,7 -51,7 -55,9 -55,33 l 1,26 -39,-25 c -35,-23 -47,-25 -155,-25 -84,0 -149,6 -229,22 -88,19 -118,21 -142,13 -36,-13 -47,-2 -31,28 9,16 8,25 -1,37 -11,13 -10,18 6,29 26,19 86,18 228,-7 164,-28 284,-24 321,10 28,26 33,50 15,68 -6,6 -9,19 -7,29 3,17 6,16 28,-9 16,-18 26,-23 31,-16 4,7 14,9 23,6 21,-8 21,-67 1,-132 -8,-27 -13,-50 -12,-51 1,-1 59,-5 128,-9 l 125,-7 10,47 c 8,45 12,49 49,59 l 40,12 13,84 c 10,67 10,100 1,155 -23,135 -58,194 -140,230 -39,18 -53,45 -24,45 9,0 33,-9 54,-19 z"
       id="path6"
       style="display:inline" />
    <path
       d="m 938,1068 c -14,-11 -40,-21 -57,-22 -26,-1 -31,-5 -31,-27 0,-14 -14,-44 -31,-65 -29,-37 -30,-39 -11,-47 23,-10 42,-48 42,-81 0,-19 4,-22 23,-19 13,3 37,-6 58,-20 l 35,-24 28,24 c 20,17 38,23 60,21 29,-3 31,-1 28,29 -2,25 3,39 22,57 32,29 32,33 0,63 -19,18 -25,31 -22,56 3,31 2,32 -29,29 -24,-2 -39,3 -58,22 -14,14 -27,26 -28,25 -1,0 -14,-9 -29,-21 z m 98,-69 c 66,-62 20,-179 -71,-179 -60,0 -105,47 -105,111 0,22 10,41 35,66 32,32 40,35 76,30 23,-3 52,-15 65,-28 z"
       id="path8"
       style="display:inline" />
    <path
       d="M 0,431 C 0,419 5,410 10,410 16,410 159,349 328,274 742,90 731,94 782,109 c 22,7 186,73 363,147 178,74 330,134 339,134 11,0 16,9 16,31 0,24 -3,29 -12,21 -7,-5 -134,-63 -283,-127 C 1057,251 894,180 843,158 L 751,118 388,280 C 188,369 19,445 13,447 5,450 0,444 0,431 Z"
       id="path10"
       style="display:inline" />
    <path
       d="M 0,188 V 0 h 750 750 V 179 358 L 1338,288 C 993,140 771,50 747,50 721,50 289,235 108,324 L 0,377 Z"
       id="path12"
       style="display:inline" />
  </g>
  <path
     style="display:inline;fill:#ffffff;stroke-width:0.134168"
     d="m 94.588552,67.757952 c -3.938107,-0.72962 -6.832642,-3.436726 -8.06721,-7.54485 -0.469177,-1.561219 -0.530212,-4.091681 -0.128257,-5.3174 0.529845,-1.615688 2.12724,-3.691377 4.399207,-5.716413 2.089433,-1.862342 3.007013,-2.183112 5.463548,-1.909959 1.85004,0.205715 3.47535,0.669553 5.1082,1.457803 1.07223,0.517613 1.45785,0.798865 2.4288,1.771456 0.95663,0.958251 1.26146,1.374327 1.78081,2.430749 0.83624,1.701017 1.0657,2.838597 0.98777,4.897138 -0.0696,1.838456 -0.4776,3.28952 -1.39562,4.963439 -0.67201,1.225338 -2.48149,3.064158 -3.73468,3.795219 -2.08432,1.215918 -4.435128,1.618847 -6.842568,1.172818 z"
     id="path494" />
  <path
     style="display:inline;fill:#ffffff;stroke-width:0.134168"
     d="m 111.96333,102.83287 c -14.254193,-0.20391 -20.95416,-0.72264 -22.629015,-1.75201 -0.600405,-0.36902 -0.71625,-0.84724 -0.71625,-2.956875 0,-1.022085 -0.0231,-1.858335 -0.0513,-1.858335 -0.0282,0 -1.28091,0.785497 -2.783768,1.745543 -1.502865,0.960044 -3.155205,1.920974 -3.671872,2.135397 -2.22765,0.92452 -5.14632,1.14674 -13.68538,1.04198 -9.795118,-0.12016 -13.973581,-0.5544 -23.479427,-2.44003 -6.281366,-1.246013 -6.907731,-1.334025 -9.52594,-1.338532 -2.204397,-0.0038 -2.331925,0.01125 -3.804201,0.447997 -1.138978,0.337897 -1.679288,0.434347 -2.141396,0.38226 -1.282677,-0.144577 -1.409667,-1.04973 -0.441995,-3.15042 0.905079,-1.964812 0.886874,-2.347845 -0.189484,-3.986625 -0.330506,-0.503205 -0.60092,-1.03782 -0.60092,-1.18803 0,-0.150907 0.290885,-0.553485 0.650115,-0.899737 2.549922,-2.457795 7.566378,-2.47176 22.158472,-0.06165 7.070949,1.167862 11.108077,1.657357 16.033094,1.943977 6.943335,0.404085 12.646067,-0.21048 15.759977,-1.69839 1.338262,-0.639457 2.975437,-2.255587 3.628215,-3.581565 0.784245,-1.593022 0.700732,-2.747025 -0.295568,-4.084522 -0.71394,-0.958433 -0.912975,-1.482878 -0.91209,-2.4033 7.5e-4,-1.072635 0.213008,-1.782038 0.532493,-1.782038 0.14844,0 0.849982,0.637058 1.704337,1.547678 1.539645,1.641037 2.429085,2.343202 2.968178,2.343202 0.188347,0 0.55254,-0.20133 0.84948,-0.46959 0.44937,-0.405982 0.611497,-0.46959 1.196895,-0.46959 0.95055,0 1.38348,0.267255 1.789447,1.104668 0.953933,1.967692 0.75444,6.066742 -0.524107,10.769212 -0.87795,3.229095 -1.540725,5.889262 -1.540725,6.183982 0,0.242228 0.09833,0.306653 0.57021,0.37359 1.82787,0.259275 24.667085,1.591703 24.805475,1.447143 0.0467,-0.0488 0.33599,-1.296303 0.64277,-2.772153 0.30678,-1.47585 0.65105,-3.12579 0.76504,-3.666532 0.11399,-0.540735 0.39906,-1.353698 0.6335,-1.80657 0.60577,-1.17018 1.10854,-1.438148 4.73751,-2.52498 1.66306,-0.498075 3.05954,-0.94137 3.10327,-0.985103 0.0437,-0.04372 0.33944,-1.753515 0.65712,-3.799515 1.35082,-8.699947 1.62818,-11.702794 1.3918,-15.067917 -0.48284,-6.873539 -2.5737,-15.280624 -4.80232,-19.309493 -2.21998,-4.013267 -4.59958,-6.216462 -9.21468,-8.531617 -2.16762,-1.08738 -2.99662,-1.633757 -3.75869,-2.477275 -0.61297,-0.678482 -0.80446,-1.089251 -0.70063,-1.502935 0.10234,-0.40774 0.59924,-0.636652 1.382,-0.636652 1.24423,0 5.11515,1.566186 7.04563,2.850681 3.28267,2.184209 7.02127,6.147944 9.14613,9.696889 1.45467,2.429579 2.96863,7.690572 4.77386,16.589113 1.05084,5.179901 1.26077,6.494846 1.2747,7.984429 0.0134,1.425417 -0.14537,1.749298 -1.14289,2.332235 -1.24276,0.726255 -1.44097,1.422225 -1.60259,5.627152 -0.15452,4.02006 -0.32951,5.014718 -1.16232,6.606645 -0.83878,1.603343 -2.33568,2.813288 -5.15649,4.16799 -1.39085,0.667965 -2.41215,1.482053 -2.78815,2.222476 -0.42291,0.832814 -0.6773,2.616502 -0.897,6.289572 l -0.0903,1.50939 -1.62446,-0.0231 c -0.89346,-0.0127 -4.61306,-0.0658 -8.26579,-0.1181 z"
     id="path496" />
  <path
     style="display:inline;fill:#ffffff;stroke-width:0.134168"
     d="m 59.916595,88.196565 c -0.517141,-0.481793 -0.70243,-1.157303 -0.825777,-3.01053 -0.122931,-1.846988 -0.223542,-2.298495 -0.577677,-2.592398 -0.218396,-0.181252 -0.364218,-0.172777 -1.953426,0.113603 -0.643951,0.11604 -1.242457,0.118207 -2.347943,0.0085 -2.555553,-0.253598 -3.837883,-0.6588 -4.564378,-1.442288 -0.450319,-0.485647 -0.584973,-0.930217 -0.940667,-3.105682 l -0.298572,-1.826093 -0.295806,0.670838 c -1.694496,3.842857 -2.498874,5.286277 -3.340575,5.994517 -0.827589,0.696375 -3.659374,1.064775 -6.071262,0.789855 -1.797532,-0.204892 -2.768046,-0.45576 -4.018043,-1.038615 -1.222069,-0.569827 -2.1142,-0.634125 -2.664174,-0.192007 -1.237474,0.994792 -2.348493,1.418505 -3.474633,1.325115 -0.517456,-0.0429 -0.799136,-0.13713 -0.925128,-0.309428 -0.259187,-0.354465 -0.22093,-1.535205 0.09766,-3.01398 0.513483,-2.383417 0.519138,-2.380792 -0.724302,-0.335422 -1.548078,2.54649 -2.8336,3.779452 -3.820202,3.664012 -0.49054,-0.05737 -0.928339,-0.75981 -1.042359,-1.672395 -0.407407,-3.260775 1.990876,-10.831167 4.311065,-13.608252 1.252968,-1.499704 2.7612,-1.875054 3.288458,-0.81839 0.107606,0.215652 0.208685,1.058948 0.252198,2.10408 l 0.07261,1.744186 0.907981,-1.762803 c 1.597812,-3.102077 2.761168,-3.681806 3.578007,-1.783013 0.243612,0.566292 0.316883,1.078309 0.403789,2.8217 0.06807,1.365493 0.166564,2.202636 0.274447,2.332627 0.269614,0.324864 0.712636,0.240105 1.858504,-0.355571 1.281888,-0.666385 2.249356,-0.808207 3.154704,-0.462451 1.256295,0.479783 1.710159,1.368153 1.823883,3.569975 l 0.07969,1.542937 0.717226,-1.466842 c 1.102999,-2.255802 2.381157,-3.344949 4.425717,-3.771253 1.093947,-0.228094 1.935181,-0.115512 2.939445,0.393388 0.833148,0.422188 2.180166,0.66552 3.069226,0.55444 0.866788,-0.108299 1.479027,0.161354 1.597752,0.703707 0.140332,0.641065 0.178267,0.701943 0.437393,0.701943 0.281758,0 1.016799,-0.467672 1.834203,-1.167015 1.382824,-1.183098 3.691836,-1.782474 4.346135,-1.128174 0.393735,0.393735 0.362527,0.898704 -0.18839,3.048239 -0.259081,1.010857 -0.44693,1.862062 -0.417443,1.891545 0.02949,0.02948 0.786437,-0.587445 1.682108,-1.370963 2.768458,-2.421795 4.556926,-3.56919 5.870387,-3.766156 0.848128,-0.127185 1.246864,0.0255 1.886764,0.722485 0.569004,0.619761 0.580629,0.624797 1.556331,0.674067 0.586697,0.02962 1.422789,-0.04005 2.073735,-0.172818 0.873515,-0.178163 1.151913,-0.190212 1.398138,-0.0605 0.436237,0.229797 0.469942,0.313017 0.573225,1.415185 0.08517,0.908874 0.116685,0.987452 0.39603,0.987452 0.335025,0 2.047312,-1.393986 2.742375,-2.232587 0.23607,-0.284821 0.593085,-0.849923 0.793372,-1.255782 0.3228,-0.65411 0.369428,-0.920825 0.41058,-2.348224 0.08249,-2.861466 -0.550852,-5.332103 -1.647757,-6.427778 -0.302115,-0.301776 -0.775305,-0.717676 -1.05153,-0.924221 -1.036283,-0.77487 -1.62645,-2.571784 -1.61724,-4.924105 0.01028,-2.620049 0.703687,-4.591275 1.908667,-5.425802 1.651418,-1.143717 2.000355,-1.799387 2.17752,-4.091685 0.23505,-3.04122 1.125758,-4.885439 2.91363,-6.032716 0.999863,-0.64161 1.687215,-0.825032 3.84453,-1.025936 2.395103,-0.223048 3.204668,-0.540235 3.886905,-1.52289 0.22356,-0.322003 0.67872,-0.873525 1.011465,-1.225604 0.94599,-1.000951 1.55199,-1.136011 5.097158,-1.136011 2.752312,0 2.913817,0.01438 3.521396,0.313593 0.80928,0.39855 1.04381,0.704251 1.64293,2.141487 0.76949,1.845953 1.2179,2.209379 2.25214,1.825319 1.87199,-0.695156 2.27079,-0.774797 3.13686,-0.626443 1.18302,0.202641 2.2074,0.71328 3.08493,1.537799 1.79709,1.688517 2.51745,3.697959 2.12366,5.923947 -0.25828,1.459988 -0.25156,2.366771 0.0204,2.75507 0.12035,0.171825 0.70901,0.538183 1.30814,0.814127 1.28392,0.591347 1.84413,1.033208 2.30328,1.816688 0.93823,1.600967 0.98267,5.774246 0.0803,7.542982 -0.38507,0.754807 -1.22895,1.460893 -2.36445,1.978351 -1.48332,0.675974 -1.69364,1.16269 -1.41482,3.274126 0.29055,2.200246 -0.25679,3.796935 -1.84359,5.37804 -1.599,1.593264 -3.18739,2.149554 -5.33915,1.869898 -0.66831,-0.08686 -1.43529,-0.116621 -1.70439,-0.06613 -0.63312,0.118775 -1.26336,0.849227 -1.70925,1.981032 -0.40455,1.026893 -1.11433,1.77894 -1.904864,2.018288 -0.786308,0.238072 -5.856765,0.242085 -6.63597,0.0052 -0.921795,-0.280178 -1.811453,-0.974213 -2.528085,-1.972208 -0.368963,-0.513832 -0.948998,-1.223245 -1.288973,-1.57648 -0.760867,-0.79055 -1.181205,-0.838446 -1.946152,-0.221751 -0.726045,0.585333 -1.473915,0.895642 -2.513318,1.042839 -1.506592,0.21336 -2.144167,0.910582 -3.127605,3.420187 -1.117057,2.850585 -2.13405,3.789247 -4.648102,4.29012 C 75.05409,83.07966 72.43384,83.01741 71.63806,82.495995 71.245884,82.23903 71.148656,82.00779 71.053051,81.104625 70.988056,80.49063 70.93123,80.3667 70.714681,80.3667 c -0.154765,0 -0.498516,0.299107 -0.848073,0.737925 -1.696258,2.129423 -2.176686,2.523975 -3.487329,2.86395 -0.915417,0.237458 -1.793179,0.917378 -3.33805,2.58567 -1.720022,1.857435 -2.470394,2.251823 -3.124651,1.64229 z m 38.07584,-15.588509 c 3.501865,-3.028467 4.196515,-3.330775 7.620545,-3.316371 l 2.16933,0.0091 0.29487,-0.370442 c 0.28283,-0.355304 0.29124,-0.447202 0.20604,-2.248797 -0.15182,-3.210007 0.11287,-3.865111 2.59864,-6.431684 2.63422,-2.71985 2.63138,-2.936891 -0.0742,-5.67206 -1.28315,-1.2972 -1.7585,-1.879548 -2.09666,-2.56864 l -0.43731,-0.891118 0.0369,-2.445197 c 0.0485,-3.215955 0.18012,-3.056571 -2.4381,-2.95364 -3.31911,0.130485 -4.23711,-0.203828 -6.504252,-2.368716 -2.410733,-2.301998 -2.527395,-2.391818 -2.871345,-2.21071 -0.164093,0.0864 -1.019265,0.696375 -1.900388,1.355487 -2.51679,1.882661 -4.091347,2.544425 -6.809475,2.861935 -0.869917,0.101616 -1.76808,0.281154 -1.995915,0.398973 -0.523162,0.270539 -0.73887,0.803006 -0.840495,2.074749 -0.158647,1.985225 -1.236165,4.202937 -3.515587,7.235655 -1.788098,2.379013 -1.971428,2.691034 -1.91475,3.258755 0.0366,0.3667 0.165667,0.482329 1.114755,0.998794 2.481405,1.350309 3.90045,3.927678 4.283467,7.77991 0.236648,2.380101 0.25332,2.398248 2.089515,2.274435 0.944048,-0.06366 1.483373,-0.03248 2.079608,0.120247 1.286625,0.329551 3.337237,1.410927 5.43381,2.865484 1.069995,0.742336 1.997985,1.352283 2.062207,1.355438 0.0642,0.0032 0.69816,-0.49707 1.408763,-1.11161 z"
     id="path498" />
  <path
     style="display:inline;fill:#ffffff;stroke-width:0.09375"
     d="M 0.06867473,44.32749 0.09375,42.014354 3.046875,40.284316 C 7.1687918,37.869562 9.7295805,36.505366 19.453125,31.5443 25.84844,28.281337 55.697515,13.38038 59.71875,11.443298 68.214109,7.3509718 71.736625,5.8948319 74.149864,5.4777537 c 0.886323,-0.1531821 2.367768,-0.062616 3.185913,0.1947667 1.853505,0.5830965 7.213485,2.8867466 13.367348,5.7451116 8.911927,4.139439 14.487595,6.870937 46.898435,22.975344 l 9.53906,4.739803 v 2.259455 c 0,1.242702 -0.0317,2.240879 -0.0703,2.218173 -3.6652,-2.151989 -8.34659,-4.504056 -22.24223,-11.175111 C 99.095737,20.081617 79.37493,10.945609 75.963067,9.7977007 75.345045,9.58977 75.319822,9.588666 74.706574,9.7427085 70.853731,10.710511 53.963683,18.624037 28.453125,31.413923 11.755148,39.785564 3.9269054,43.977829 1.1283724,46.047168 c -0.44141887,0.326401 -0.86607324,0.593457 -0.94367636,0.593457 -0.12249393,0 -0.13779058,-0.304972 -0.11602131,-2.313135 z"
     id="path913" />
  <path
     style="display:inline;fill:#ffffff;stroke-width:0.265165"
     d="M 71.992309,144.02524 C 60.733834,140.05336 26.089633,124.88575 7.0931649,115.61168 l -6.96058238,-3.39815 v -1.54906 c 0,-1.81693 0.0370015,-1.83086 2.44672318,-0.92104 2.9316971,1.1069 17.9047343,7.58916 34.5438003,14.95502 26.28611,11.63645 31.155036,13.68403 34.852853,14.65709 2.362101,0.62157 3.394796,0.64602 5.385446,0.12752 1.565175,-0.40767 17.923155,-6.92667 30.295605,-12.07344 23.34701,-9.71203 41.0079,-16.70321 42.19508,-16.70321 0.0543,0 0.0987,0.75879 0.0987,1.68619 v 1.6862 l -17.69977,7.58219 c -32.730275,14.02095 -53.096728,22.27776 -56.94419,23.08587 -0.557412,0.11708 -1.549416,-0.0989 -3.314561,-0.72162 z"
     id="path917" />
  <path
     style="display:inline;fill:#ffffff;stroke-width:0.1875"
     d="M 74.4375,137.81496 C 74.128125,137.67845 60.332812,131.51764 43.78125,124.12427 -0.25161839,104.45537 1.1319322,105.06133 0.57525485,105.20105 L 0.09375,105.3219 V 77.108827 48.895751 l 0.421875,0.07608 c 0.4563432,0.0823 13.379856,-6.36 41.123662,-20.499907 8.670358,-4.418934 19.6035,-9.973292 24.295873,-12.343017 l 8.531586,-4.308592 2.235379,1.052673 c 3.72243,1.752949 34.094405,16.333819 43.204125,20.741282 14.37091,6.952932 20.57584,10.026789 24,11.889345 3.66836,1.995394 4.82941,2.490906 5.52494,2.357948 0.46814,-0.08949 0.47506,-0.07345 0.47506,1.101935 0,0.86583 -0.0682,1.19275 -0.2487,1.19275 -0.47741,0 -5.31842,-2.027987 -9.97736,-4.179705 C 134.82466,43.734037 126.52323,39.824776 113.71875,33.750949 91.93647,23.418489 75.317475,16.03125 73.854915,16.03125 73.292038,16.03125 39.24585,32.967109 24.84375,40.411252 12.155356,46.969618 9.7471297,48.258586 5.4583132,50.787026 L 1.9166265,52.875 2.0374243,67.59375 c 0.066439,8.095312 0.1761787,19.244782 0.2438664,24.776595 l 0.1230687,10.057855 0.6728202,0.32246 c 2.4284058,1.16387 49.6249204,22.07868 56.1892674,24.89988 12.084795,5.19376 15.132297,6.38245 16.081283,6.27254 1.194525,-0.13835 9.841597,-3.6099 28.15227,-11.30233 10.39462,-4.36686 41.29655,-17.49401 44.30528,-18.82091 0.95854,-0.42272 1.82338,-0.76859 1.92188,-0.76859 0.0985,0 0.17909,0.55213 0.17909,1.22697 0,0.88327 -0.0656,1.21295 -0.23438,1.17692 -0.12891,-0.0275 -1.20468,0.42295 -2.39062,1.00106 -3.08104,1.5019 -11.07086,5.11088 -18.97373,8.57038 -10.62891,4.65283 -53.175798,23.08895 -53.245285,23.07188 -0.0342,-0.008 -0.31536,-0.12699 -0.624735,-0.2635 z"
     id="path933" />
  <path
     style="fill:#ffffff;stroke-width:0.0662912"
     d="m 149.32106,45.20407 c -1.62202,-1.375193 -5.89411,-3.731226 -13.50889,-7.450081 -9.24913,-4.51703 -30.47304,-14.632055 -40.14199,-19.131123 l -2.83863,-1.320847 5.106532,-0.01698 5.106528,-0.01698 2.73709,1.331427 c 2.53957,1.235344 9.71543,4.794113 34.48705,17.103364 l 9.68208,4.81112 0.0174,2.530637 c 0.02,2.924994 0.0678,2.765622 -0.64713,2.159466 z"
     id="path959" />
  <path
     style="fill:#000000;stroke-width:0.287908"
     d="M 0.14395393,44.061043 V 42.200781 L 2.6631478,40.704852 C 7.6205392,37.761092 16.758259,33.054093 39.731286,21.610402 69.011292,7.024979 72.147343,5.6142034 75.28968,5.6142034 c 3.116932,0 12.282135,4.1791308 49.73432,22.6777466 l 24.83204,12.265205 v 2.10626 c 0,1.221555 -0.12174,2.106258 -0.28983,2.106258 -0.15941,0 -1.7465,-0.825947 -3.52687,-1.835441 -4.10004,-2.324773 -8.19496,-4.372489 -21.4182,-10.710454 C 101.86511,21.316701 83.956252,12.932677 78.7428,10.745853 75.436957,9.3591907 74.867945,9.378849 70.802378,11.020179 58.602167,15.945587 8.5315515,40.841131 2.2513891,45.104323 0.38854226,46.368889 0.14395393,46.247807 0.14395393,44.061043 Z"
     id="path1172" />
  <path
     style="fill:#000000;stroke-width:0.287908"
     d="m 108.54127,102.62 c -10.27894,-0.22965 -15.549528,-0.60886 -17.91853,-1.2892 -1.693065,-0.48621 -1.754078,-0.60045 -1.873478,-3.507865 l -0.07365,-1.793183 -3.310942,2.014786 c -1.821023,1.108132 -3.7644,2.148032 -4.31862,2.310892 -2.038905,0.59912 -8.484345,0.82545 -15.978887,0.56109 -8.170747,-0.28822 -11.061509,-0.62209 -20.111882,-2.3229 -7.330688,-1.37763 -9.831504,-1.609282 -12.133799,-1.12395 -0.950096,0.20028 -2.245682,0.376493 -2.879078,0.391583 -1.029381,0.02452 -1.16073,-0.0507 -1.237338,-0.70842 -0.04714,-0.404723 0.179588,-1.354763 0.503838,-2.111205 0.743518,-1.734563 0.737984,-2.158313 -0.04936,-3.77889 -0.765022,-1.574648 -0.599281,-1.980353 1.225483,-2.999783 1.049551,-0.586342 1.754353,-0.721185 4.322551,-0.827002 3.510413,-0.14463 6.470523,0.15009 15.388371,1.532137 9.502897,1.472708 13.042555,1.868618 18.426104,2.060963 9.931671,0.354825 15.106596,-0.961223 17.525031,-4.45686 1.222958,-1.767668 1.335585,-3.475238 0.329498,-4.995548 -0.9975,-1.50732 -1.29951,-3.31737 -0.598403,-3.58641 0.350198,-0.134385 0.980108,0.3111 2.231648,1.578255 1.793445,1.815818 2.70429,2.17299 3.400905,1.33362 0.493777,-0.59496 1.82646,-0.541972 2.40342,0.09557 0.262522,0.290085 0.611317,1.25232 0.775102,2.138303 0.397118,2.148195 -0.0089,5.204887 -1.4433,10.865887 -0.6219,2.454383 -1.037145,4.556092 -0.92277,4.670475 0.183615,0.183615 11.711376,0.989325 21.946236,1.533885 l 3.61281,0.19223 0.76974,-3.641652 c 1.21724,-5.75871 1.11266,-5.636835 6.29862,-7.340498 2.6523,-0.87132 2.78559,-0.95466 2.95285,-1.846267 1.56796,-8.357903 2.17961,-16.058076 1.62942,-20.512973 -0.83002,-6.720668 -2.91936,-14.145145 -4.96039,-17.626774 -1.6283,-2.777565 -4.8667,-5.72529 -8.28318,-7.539696 -3.31671,-1.761414 -5.0184,-3.143639 -4.8549,-3.943439 0.26922,-1.316831 4.46814,-0.105775 8.30835,2.396296 2.35365,1.53351 6.46869,5.768085 8.18795,8.425792 2.09044,3.231485 4.09549,10.081236 6.0523,20.676228 0.9864,5.340753 0.96618,5.676088 -0.41959,6.955348 -1.34865,1.245 -1.38154,1.368413 -1.72449,6.471698 -0.39868,5.932425 -1.27355,7.395802 -5.79461,9.692505 -2.59649,1.319017 -3.30469,2.153707 -3.68622,4.3446 -0.18101,1.03947 -0.32911,2.413762 -0.32911,3.053977 0,0.640225 -0.081,1.568915 -0.17995,2.063755 -0.17938,0.89695 -0.18535,0.89956 -1.94338,0.85232 -0.96988,-0.0261 -6.03886,-0.14292 -11.26439,-0.25967 z"
     id="path1174" />
  <path
     style="fill:#000000;stroke-width:0.287908"
     d="m 59.764575,87.712215 c -0.156461,-0.29235 -0.409869,-1.541558 -0.563125,-2.776005 -0.153259,-1.234455 -0.423941,-2.334255 -0.601514,-2.444003 -0.177576,-0.109747 -0.930737,-0.107287 -1.673695,0.0053 -1.435915,0.21792 -4.63779,-0.0827 -5.86975,-0.551077 -1.127243,-0.42858 -1.893435,-1.613145 -2.122321,-3.281198 -0.380628,-2.773905 -0.504286,-2.786257 -1.683802,-0.168202 -2.015551,4.47372 -2.917177,5.140035 -6.955233,5.140035 -1.879143,0 -2.995644,-0.173873 -4.621835,-0.719768 -2.641844,-0.886837 -3.128486,-0.886035 -4.57925,0.0075 -1.411167,0.86916 -3.191215,0.967223 -3.438085,0.189405 -0.09127,-0.287572 -0.03522,-1.212165 0.124552,-2.054647 0.533161,-2.811345 0.288077,-3.02889 -0.988927,-0.877793 -1.082328,1.82316 -2.664628,3.455288 -3.349804,3.455288 -1.324765,0 -1.490032,-2.821358 -0.402955,-6.879045 1.294357,-4.831397 3.581963,-8.872682 5.272743,-9.314831 1.024445,-0.267898 1.336372,0.242379 1.488649,2.435263 l 0.145713,2.098348 0.861965,-1.553494 c 0.474081,-0.854424 1.210866,-1.955671 1.6373,-2.447216 0.641185,-0.739091 0.86535,-0.83903 1.295585,-0.577613 0.560807,0.340757 0.806751,1.220808 1.158791,4.146461 0.211822,1.760367 0.267888,1.868934 0.944952,1.829827 0.395874,-0.02286 1.326234,-0.277745 2.067468,-0.566401 2.416429,-0.941024 3.977164,0.398801 3.97815,3.415078 2.46e-4,0.75216 0.10786,1.367558 0.239142,1.367558 0.131281,0 0.539536,-0.642308 0.907232,-1.427355 1.464277,-3.126293 4.347232,-4.474911 7.103856,-3.323122 0.568476,0.237524 1.6093,0.431862 2.312944,0.431862 1.45437,0 2.393128,0.39926 2.393128,1.017806 0,0.62688 0.835649,0.511169 1.844225,-0.255366 1.994105,-1.515549 3.928656,-2.146125 4.581441,-1.49334 0.369726,0.369726 0.366783,0.669455 -0.02407,2.450583 -0.244914,1.116129 -0.370629,2.104007 -0.279362,2.195274 0.09127,0.09126 1.290201,-0.743535 2.664302,-1.855117 3.702305,-2.994971 5.468095,-3.616742 6.628834,-2.334141 0.461456,0.509902 0.840443,0.58202 2.809238,0.534567 2.47704,-0.0597 2.780272,0.107686 2.788245,1.539159 0.0067,1.251772 0.801225,0.979522 2.630692,-0.901736 1.850798,-1.903187 2.205368,-3.043443 1.87842,-6.040763 -0.302587,-2.774021 -0.734835,-3.807 -2.233417,-5.337388 -1.579958,-1.613496 -1.980173,-2.666599 -1.980173,-5.210517 0,-2.712137 0.443198,-3.8367 2.16351,-5.489642 1.32075,-1.269033 1.551473,-1.657009 1.71432,-2.882804 0.5841,-4.396649 1.135238,-5.667777 2.989478,-6.894858 0.777802,-0.514724 1.800375,-0.839687 3.250207,-1.032882 3.069173,-0.408979 3.795008,-0.711646 4.847528,-2.02136 0.518692,-0.645446 1.375185,-1.354083 1.903312,-1.574748 1.256063,-0.524819 6.329123,-0.527072 7.273911,-0.0032 0.37454,0.207666 1.08711,1.142375 1.58349,2.07713 0.84832,1.597494 0.96303,1.697454 1.91019,1.664568 0.55422,-0.01925 1.48628,-0.132188 2.07125,-0.250991 1.64702,-0.3345 2.92392,0.04862 4.3522,1.305855 1.7656,1.554139 2.34851,3.119825 2.13034,5.722088 -0.21954,2.618709 -0.0748,3.032019 1.27436,3.640434 2.45958,1.109115 3.37859,3.135817 3.05253,6.731758 -0.21001,2.315994 -0.82019,3.321705 -2.63763,4.347405 -1.72668,0.974477 -1.91691,1.375122 -1.69122,3.561855 0.19222,1.862439 -0.25656,3.337037 -1.41826,4.660143 -1.70672,1.943853 -2.41517,2.260751 -5.40611,2.418167 l -2.73512,0.143954 -0.77563,1.438237 c -1.29918,2.409037 -1.53048,2.507452 -5.637988,2.398762 l -3.559815,-0.09419 -1.946708,-2.087333 c -1.070692,-1.148037 -2.084797,-2.087336 -2.25357,-2.087336 -0.16878,0 -0.870712,0.322336 -1.559865,0.7163 -0.689145,0.393968 -1.512112,0.718547 -1.828807,0.721287 -1.273523,0.01103 -2.2053,0.990324 -3.55461,3.735917 -1.218525,2.479462 -1.462223,2.788522 -2.69184,3.413805 -1.828178,0.929662 -5.89644,1.22958 -6.9869,0.515085 -0.448399,-0.293798 -0.73018,-0.747075 -0.73018,-1.174575 0,-1.310415 -0.636587,-1.16301 -2.139046,0.4953 -0.961393,1.061122 -1.958893,1.819875 -2.9216,2.222325 -0.930772,0.389107 -2.130509,1.285807 -3.302623,2.46843 -1.906221,1.923322 -2.642602,2.2353 -3.129354,1.32579 z m 38.853247,-15.40872 c 2.930748,-2.431572 3.747728,-2.773745 6.622638,-2.773745 1.53402,0 2.59644,-0.13056 2.81136,-0.345489 0.2099,-0.209899 0.34549,-1.230461 0.34549,-2.600418 0,-2.765929 0.4349,-3.886293 2.25707,-5.814585 1.88844,-1.99842 2.44515,-2.911484 2.24946,-3.689426 -0.0899,-0.357439 -1.07852,-1.674304 -2.1969,-2.926366 -1.11839,-1.252062 -2.09547,-2.547648 -2.17131,-2.879079 -0.0758,-0.331431 -0.17036,-1.70385 -0.21007,-3.049819 l -0.0722,-2.447217 -2.87907,-0.162023 c -1.58349,-0.08911 -3.18122,-0.326087 -3.55049,-0.526608 -0.36928,-0.200521 -1.5779,-1.196468 -2.68583,-2.213216 -1.10793,-1.016748 -2.204085,-1.848633 -2.435895,-1.848633 -0.23181,0 -1.133843,0.526257 -2.00451,1.16946 -2.3409,1.729323 -4.015508,2.474516 -6.701535,2.982154 -1.32387,0.250202 -2.44179,0.454912 -2.484263,0.454912 -0.173362,0 -0.684967,1.654833 -0.826477,2.673315 -0.221235,1.592329 -1.319018,3.782409 -3.205643,6.395316 -2.40561,3.331672 -2.468122,3.521395 -1.430902,4.342747 2.405392,1.904787 2.811262,2.325456 3.43923,3.564706 0.374167,0.73838 0.831907,2.176439 1.017202,3.195689 0.707768,3.893188 0.450293,3.558996 2.88456,3.743971 2.333288,0.177302 4.036778,0.904641 7.331963,3.130514 0.950092,0.641784 1.796445,1.167294 1.880775,1.167798 0.08434,5.75e-4 0.991245,-0.694278 2.015355,-1.543958 z"
     id="path1176" />
  <path
     style="fill:#000000;stroke-width:0.287908"
     d="m 93.605752,67.348453 c -4.424602,-1.413432 -7.156357,-5.223813 -7.20852,-10.054787 -0.02213,-2.050528 0.06727,-2.46005 0.814928,-3.732116 1.032195,-1.756194 4.340325,-5.06539 5.716665,-5.718506 1.768095,-0.839013 5.004795,-0.453337 8.252765,0.983376 1.79684,0.794814 3.87659,3.082475 4.63843,5.102104 0.80264,2.127836 0.68437,5.523076 -0.26849,7.707191 -0.80994,1.856521 -3.46515,4.500973 -5.35495,5.333256 -1.847003,0.813437 -4.715378,0.978589 -6.590828,0.379482 z"
     id="path1178" />
  <path
     style="fill:#000000;stroke-width:0.287908"
     d="M 57.869482,130.25 C 7.4593456,107.68081 1.7841055,105.18072 0.83862892,105.12631 L 0.14436058,105.08637 0.14415725,77.118547 0.14395393,49.150716 0.90732232,48.959122 C 1.6024832,48.784647 36.470205,31.462217 37.140115,30.958518 c 0.158349,-0.119061 8.644434,-4.432851 18.857965,-9.5862 l 18.570058,-9.369725 14.827257,7.115796 c 30.146665,14.467788 36.382885,17.492161 47.616955,23.092788 6.3165,3.149016 11.79035,5.725483 12.16411,5.725483 0.56012,0 0.67958,0.148843 0.67958,0.846731 0,0.465703 -0.1182,0.919785 -0.26266,1.009068 -0.48776,0.301452 -8.97869,-3.483543 -27.08858,-12.075258 C 93.961267,24.175558 76.774042,16.457812 74.324968,16.082553 73.57221,15.967212 70.825868,17.22076 58.301344,23.396413 35.143531,34.81518 13.245558,46.085029 5.6891389,50.473422 L 1.877318,52.68714 1.874363,60.341228 c -0.00163,4.209749 0.082925,15.436852 0.1878939,24.949109 l 0.1908524,17.295013 1.6085719,0.70674 c 0.8847143,0.3887 8.0864988,3.58876 16.0039658,7.11122 36.055943,16.04123 51.324388,22.64173 54.078679,23.37804 1.302176,0.34812 1.542521,0.31882 3.742796,-0.45633 4.685228,-1.65061 26.108178,-10.58226 58.827528,-24.52636 6.8345,-2.91268 12.63224,-5.29578 12.88388,-5.29578 0.30786,0 0.45751,0.2606 0.45751,0.79668 0,0.74285 -0.26748,0.92047 -3.95873,2.62869 -7.59272,3.51373 -19.9582,8.95535 -43.54606,19.16311 -13.063825,5.65343 -24.44824,10.59252 -25.29871,10.97576 -0.85047,0.38323 -1.757378,0.6883 -2.015355,0.67792 -0.257972,-0.0103 -7.983439,-3.38314 -17.1677,-7.49504 z"
     id="path1180" />
  <path
     style="fill:#000000;stroke-width:0.287908"
     d="M 71.257198,143.54899 C 59.190838,139.17844 26.689819,124.90861 6.2312931,114.99886 l -6.14874533,-2.97834 0.14089422,-1.25001 c 0.0774918,-0.68751 0.20812877,-1.31724 0.2903043,-1.39942 0.34541576,-0.34541 8.73053021,3.21462 39.07358571,16.58933 32.106325,14.15192 33.567956,14.6864 37.445873,13.69292 2.132212,-0.54624 15.801322,-5.95359 34.099225,-13.48926 23.10651,-9.51603 37.4156,-15.1756 38.36841,-15.1756 0.28376,0 0.36237,0.3967 0.29827,1.50535 l -0.087,1.50534 -16.98656,7.27108 c -34.202673,14.64041 -56.038008,23.44958 -57.973465,23.38859 -0.259508,-0.008 -1.832199,-0.50761 -3.494867,-1.10985 z"
     id="path1182" />
</svg>
