<?xml version="1.0" encoding="UTF-8" standalone="no"?>
<svg
   version="1.0"
   width="150pt"
   height="150pt"
   viewBox="0 0 150 150"
   preserveAspectRatio="xMidYMid"
   id="svg16"
   sodipodi:docname="logo_white.svg"
   xmlns:inkscape="http://www.inkscape.org/namespaces/inkscape"
   xmlns:sodipodi="http://sodipodi.sourceforge.net/DTD/sodipodi-0.dtd"
   xmlns="http://www.w3.org/2000/svg"
   xmlns:svg="http://www.w3.org/2000/svg">
  <sodipodi:namedview
     id="namedview235"
     pagecolor="#505050"
     bordercolor="#eeeeee"
     borderopacity="1"
     inkscape:showpageshadow="0"
     inkscape:pageopacity="0"
     inkscape:pagecheckerboard="0"
     inkscape:deskcolor="#505050"
     inkscape:document-units="pt"
     showgrid="false" />
  <defs
     id="defs20" />
  <g
     id="g1468"
     style="display:inline">
    <path
       style="display:inline;fill:#ff6600;stroke-width:0.5"
       d="M 98,177.74373 C 97.45,177.5025 91.6,175.03542 85,172.26132 78.4,169.48723 57.44182,160.30607 38.426262,151.85875 L 3.8525249,136.5 3.5599018,129.5 C 3.398959,125.65 3.1854781,110.87486 3.0854997,96.666355 L 2.9037208,70.832705 7.9518605,67.845848 C 10.728337,66.203076 17.3875,62.555717 22.75,59.740606 35.981622,52.794502 89.498735,25.791736 94.62687,23.474181 l 4.126875,-1.865054 4.623125,1.900681 c 7.93238,3.261195 30.67589,13.665041 54.62313,24.986932 26.9513,12.742166 34.37044,16.160549 38.625,17.796529 l 3.125,1.201639 v 34.645312 34.64531 l -2.375,1.03543 c -17.76509,7.74505 -79.62748,33.77407 -89.69833,37.74119 -6.95043,2.73791 -7.913275,2.95498 -9.67667,2.18158 z M 162.75379,136.875 c 0.0115,-2.66344 1.03315,-9.19772 1.57321,-10.0625 0.34578,-0.55368 2.17342,-1.85345 4.06143,-2.88839 6.24455,-3.42302 7.86157,-6.37958 7.86157,-14.37411 0,-4.47115 0.64895,-6.47954 2.34308,-7.25144 1.2816,-0.58393 1.29075,-0.62868 1.01149,-4.94391 C 179.1028,89.60133 174.74942,71.666405 172.1718,66.733337 167.62641,58.034363 157.04362,49.637538 150.5,49.53802 c -2.17421,-0.03307 -2.51956,0.09896 -2.6501,1.013146 -0.20251,1.418207 2.5078,3.736907 7.03003,6.014268 7.1127,3.581898 11.77322,9.886024 14.55241,19.684566 3.11608,10.98631 3.56265,20.28194 1.59375,33.17541 -0.66564,4.35897 -1.30098,8.01614 -1.41188,8.12704 -0.1109,0.1109 -2.07619,0.76271 -4.36732,1.44848 -5.98146,1.79033 -6.07154,1.90751 -7.78255,10.12407 -0.82682,3.9705 -0.91101,4.125 -2.24788,4.125 -4.25988,0 -31.97472,-1.88511 -31.96352,-2.1741 0.002,-0.0417 0.68931,-2.5509 1.5282,-5.5759 1.94796,-7.02427 2.52012,-14.73363 1.27253,-17.14622 -0.65269,-1.26216 -1.14758,-1.60378 -2.3233,-1.60378 -0.82167,0 -1.93744,0.27697 -2.47949,0.61549 -0.87421,0.54594 -1.28477,0.31998 -3.63394,-2 -2.79765,-2.7629 -3.57026,-3.10982 -4.06345,-1.8246 -0.62086,1.61794 -0.26727,3.56392 0.94651,5.20911 1.61126,2.18394 1.57484,3.292 -0.20022,6.09098 -2.77275,4.37216 -8.07215,5.99587 -19.61805,6.01087 -9.14996,0.0119 -13.43173,-0.43856 -13.43173,-1.41301 0,-1.03115 6.468075,-7.18884 7.55121,-7.18884 0.502695,0 1.682775,-0.675 2.6224,-1.5 1.92759,-1.69245 2.57273,-1.82509 3.64782,-0.75 0.51708,0.51708 1.788065,0.75 4.092585,0.75 6.200205,0 8.253925,-1.21675 10.549215,-6.25 1.58536,-3.47648 2.12948,-4.00131 4.61153,-4.44804 1.00361,-0.18063 2.09991,-0.65997 2.43622,-1.06519 1.01832,-1.227005 1.81255,-0.85183 3.67001,1.73362 2.03295,2.82971 3.72571,3.52235 8.6194,3.52682 4.4503,0.004 5.93336,-0.66508 7.1337,-3.21869 1.13431,-2.41314 1.91199,-2.884305 4.05369,-2.455965 2.34869,0.46974 4.89214,-0.247675 6.79201,-1.91579 2.50076,-2.19569 2.92935,-3.18104 3.21596,-7.393545 0.25272,-3.714255 0.2657,-3.743185 2.15474,-4.800145 2.84205,-1.590185 3.49782,-2.855335 3.71784,-7.172635 0.23518,-4.614625 -0.65464,-6.6513 -3.61833,-8.281919 l -2,-1.100395 -0.0252,-3.704063 C 150.4468,60.091069 149.78423,58.398894 147.26254,56 c -1.41788,-1.348835 -1.88848,-1.495784 -4.66964,-1.45816 -1.70107,0.02301 -3.54285,0.135512 -4.09285,0.25 -0.7835,0.163093 -1.24398,-0.302447 -2.12692,-2.150275 -0.61981,-1.297139 -1.5993,-2.611247 -2.17666,-2.92024 -0.64546,-0.345437 -2.97829,-0.49624 -6.05728,-0.391565 L 123.1316,49.5 l -1.86114,2.161812 c -1.76475,2.049849 -2.05019,2.185549 -5.51129,2.620141 -2.00758,0.252081 -4.34968,0.865767 -5.20466,1.363748 -2.14124,1.247154 -3.74349,4.373739 -4.12835,8.055946 -0.28983,2.772917 -0.54052,3.306134 -2.47857,5.272001 -2.46687,2.502262 -2.95156,3.826562 -2.93766,8.026352 0.0117,3.518955 0.87264,5.89424 2.53023,6.980335 1.68974,1.10716 2.67465,3.28627 3.03242,6.70924 0.37948,3.63066 0.0565,5.033145 -1.61688,7.02189 -1.50698,1.79094 -2.70292,1.958445 -3.6102,0.50565 -0.57,-0.91271 -0.95637,-0.993985 -3.320935,-0.69855 -2.308695,0.28845 -2.886525,0.178595 -4.2109,-0.800555 -1.380245,-1.02046 -1.73053,-1.076305 -3.474265,-0.55387 -1.06659,0.31956 -2.97204,1.369605 -4.23433,2.33344 -3.11483,2.37834 -3.81912,2.30742 -3.699735,-0.37258 L 82.5,96 80.397365,96.0415 C 78.95543,96.06995 77.65738,96.524685 76.26642,97.48862 74.37034,98.802605 74.1789,98.84064 73.32969,98.072115 72.830055,97.619955 71.622705,97.25 70.64669,97.25 c -0.97601,0 -2.625915,-0.355715 -3.666455,-0.79048 -2.321585,-0.97002 -4.757615,-0.613765 -7.344515,1.0741 -2.24279,1.463345 -3.18327,1.52892 -3.857575,0.26897 -0.87139,-1.62821 -3.25646,-2.132965 -5.876124,-1.243565 -2.766143,0.93913 -3.133046,0.592935 -3.144365,-2.966895 -0.0042,-1.32433 -0.240573,-2.84308 -0.525248,-3.375 C 45.616915,89.06707 43.627222,88.94301 42.75,90 c -0.342345,0.4125 -1.017345,0.75 -1.5,0.75 -0.482656,0 -1.157656,-0.3375 -1.5,-0.75 -3.117663,-3.756555 -9.614807,6.823255 -10.356084,16.86362 -0.3881,5.2567 0.887869,6.70815 3.856084,4.38638 1.611553,-1.26058 2.815226,-1.26058 3.144874,0 0.369262,1.41206 3.079231,1.31319 5.585407,-0.20377 l 1.980282,-1.19864 2.519718,1.04642 c 1.939892,0.80563 3.633978,1.05328 7.361889,1.07621 4.667605,0.0287 4.896115,-0.0219 6.33867,-1.40396 0.823075,-0.78856 1.765145,-2.08231 2.09349,-2.875 0.760085,-1.83501 2.21633,-1.86851 3.07794,-0.0708 1.00342,2.09356 3.063465,2.82944 8.14773,2.91046 l 4.5,0.0717 0.385905,3.1987 c 0.27008,2.23859 0.682785,3.44786 1.375,4.02883 1.50226,1.26085 1.29133,2.44504 -0.385905,2.16655 -30.271079,-5.02621 -37.810857,-5.26146 -41.350606,-1.29016 -0.969832,1.08807 -0.968639,1.1073 0.201602,3.24953 l 1.177208,2.15498 -1.158355,2.79474 c -0.989048,2.38626 -1.05913,2.9143 -0.479481,3.61273 0.511161,0.61592 1.179856,0.74593 2.706753,0.52627 7.104438,-1.02204 9.912831,-0.89316 19.027879,0.87318 14.306985,2.77244 17.23975,3.04693 32.75,3.06523 15.80841,0.0186 16.09069,-0.0252 21.30403,-3.30932 1.67972,-1.05813 3.31097,-1.92387 3.625,-1.92387 0.34293,0 0.57097,0.894 0.57097,2.23847 0,1.77685 0.232,2.38547 1.125,2.95126 2.52538,1.60004 9.64955,2.08596 40,2.72826 3.3871,0.0717 3.87548,-0.0282 3.87879,-0.79299 z"
       id="path1237"
       transform="scale(0.75)" />
    <path
       style="display:inline;fill:#ff6600;stroke-width:0.353553"
       d="M 95.989745,185.4375 C 90.803775,183.95234 84.784019,181.4161 52.149125,166.96657 28.341426,156.42539 6.0113262,146.77918 2.7500277,145.62701 c -1.3397334,-0.4733 -1.95333986,-0.91096 -2.23685984,-1.59544 -0.50215223,-1.2123 -0.31261364,-2.79674 0.38690401,-3.23431 0.40972593,-0.2563 12.88734113,5.16564 49.85102913,21.66193 42.744834,19.07631 49.422099,21.95828 50.188389,21.66176 5.20854,-2.0155 85.81164,-37.28264 93.65523,-40.97798 2.2162,-1.04412 4.2375,-1.89839 4.49179,-1.89839 0.9568,0 1.03819,3.98011 0.1166,5.70212 -0.17326,0.32374 -1.47171,0.93702 -2.88544,1.36283 -3.34531,1.00762 -27.32388,10.56586 -47.47169,18.92299 -21.63194,8.97272 -42.26766,17.26687 -45.20369,18.16879 -2.92222,0.89768 -4.616387,0.90569 -7.652545,0.0362 z"
       id="path1243"
       transform="scale(0.75)" />
    <path
       style="display:inline;fill:#ff6600;stroke-width:0.03125"
       d="m 30.5816,112.23405 c -0.511205,-0.18387 -0.883838,-0.76217 -1.065487,-1.65353 -0.08005,-0.3928 -0.07986,-0.41553 0.0033,-0.40301 0.05333,0.008 0.08389,0.064 0.156063,0.28591 0.205498,0.63179 0.578241,1.15729 0.945041,1.33234 0.336611,0.16064 0.819437,0.10604 1.348829,-0.15253 1.155261,-0.56427 2.445979,-2.0634 4.091887,-4.75261 0.930073,-1.51962 1.14907,-1.84375 1.245729,-1.84375 0.05801,0 0.06049,0.0153 0.04189,0.25782 -0.01088,0.14179 -0.07556,0.525 -0.143724,0.85156 -0.479889,2.2989 -0.543214,2.67508 -0.602783,3.58075 -0.05959,0.90601 0.03293,1.53181 0.261297,1.76743 0.204548,0.21104 0.638666,0.33154 1.342379,0.37262 1.35241,0.0789 2.747803,-0.44274 4.263025,-1.59376 0.542204,-0.41187 0.791239,-0.51975 1.290547,-0.55905 0.187709,-0.0148 0.19666,-0.0123 0.1875,0.0515 -0.01622,0.11303 -2.305273,1.48177 -2.984535,1.78459 -0.920975,0.41059 -1.74996,0.62699 -2.540709,0.66323 -0.859272,0.0394 -1.494213,-0.16972 -1.819124,-0.59912 -0.07009,-0.0926 -0.155501,-0.26791 -0.210783,-0.43257 -0.113671,-0.33858 -0.246941,-0.55245 -0.432564,-0.69418 -0.375577,-0.28678 -0.973587,-0.26419 -1.652244,0.0624 -0.365046,0.17567 -0.543369,0.28974 -1.113221,0.71213 -0.764152,0.5664 -1.267989,0.84106 -1.794321,0.97815 -0.250557,0.0653 -0.611134,0.058 -0.818018,-0.0164 z"
       id="path1461"
       transform="scale(0.75)" />
    <path
       style="display:inline;fill:#ff6600;stroke-width:0.176777"
       d="m 128.24518,97.778032 c -0.14237,-0.134555 -1.37255,-0.990396 -2.73373,-1.901871 -4.41619,-2.957175 -6.55887,-3.751992 -9.61307,-3.565922 -1.74382,0.106238 -1.74819,0.105472 -2.05321,-0.360057 -0.21226,-0.323945 -0.35205,-1.074572 -0.45741,-2.456119 -0.16246,-2.13025 -0.45693,-3.473816 -1.1225,-5.121603 -1.00582,-2.490156 -2.69245,-4.518736 -4.45819,-5.362026 -0.56867,-0.271589 -1.17316,-0.611817 -1.34331,-0.75606 -0.68027,-0.576706 -0.35749,-1.230861 2.38921,-4.842064 3.01481,-3.963698 4.31115,-6.660048 4.55301,-9.470163 0.22614,-2.627477 0.57315,-2.934034 3.74055,-3.304546 3.38458,-0.395915 5.95617,-1.397365 8.35731,-3.254564 1.92885,-1.491909 3.16704,-2.317097 3.4768,-2.317097 0.1686,0 1.31232,0.95475 2.54159,2.121667 3.96403,3.762961 4.46699,3.983295 8.95426,3.922616 2.65907,-0.03596 3.16272,-4.77e-4 3.40295,0.239753 0.36361,0.363614 0.34683,0.182436 0.35947,3.880624 0.0105,3.07017 0.0275,3.217481 0.4844,4.192274 0.3434,0.73264 1.0978,1.655709 2.74504,3.358757 1.24932,1.291656 2.41762,2.658219 2.59622,3.036808 0.557,1.180699 0.24652,1.765893 -2.25332,4.247094 -3.34574,3.320789 -3.77062,4.308799 -3.58739,8.34208 0.12362,2.72118 -0.0135,3.503524 -0.65176,3.720224 -0.21064,0.07151 -1.73532,0.135197 -3.38818,0.141535 -2.69915,0.01034 -3.10685,0.05245 -4.00325,0.413352 -1.4188,0.571225 -2.76165,1.493931 -5.16336,3.547858 -1.15254,0.985652 -2.18953,1.792095 -2.30441,1.792095 -0.11488,0 -0.32535,-0.110089 -0.46772,-0.244645 z m 2.84546,-7.253983 c 5.20327,-0.928303 9.43681,-5.061953 10.87763,-10.620983 0.48449,-1.8693 0.44817,-5.222229 -0.0765,-7.0631 -0.70712,-2.480961 -2.43029,-5.179846 -4.20278,-6.582539 -2.54784,-2.016282 -7.02936,-3.440531 -10.94009,-3.476815 -1.57554,-0.01462 -1.8814,0.03636 -2.81276,0.46877 -2.85021,1.323314 -7.61119,6.442443 -8.78004,9.440546 -0.55279,1.417914 -0.67119,4.397563 -0.25613,6.445968 1.03069,5.086654 4.27676,9.076191 8.71264,10.708128 2.41277,0.887649 4.99704,1.122652 7.47804,0.680025 z"
       id="path1239"
       transform="scale(0.75)" />
    <path
       style="display:inline;fill:#ff6600;stroke-width:0.353553"
       d="M 0.32700464,64.013259 C 0.20776614,63.538172 0.21460178,62.980555 0.34219496,62.774104 1.5726555,60.783178 21.077369,50.426174 54.623999,33.950469 84.258504,19.396119 97.780603,13.258252 100.21023,13.258252 c 1.92251,0 18.59055,7.571384 56.49776,25.663851 30.39083,14.505033 41.06423,20.032412 42.82399,22.177063 0.29982,0.365394 0.3932,0.938243 0.24754,1.518593 -0.20828,0.82985 -0.36355,0.910832 -1.41824,0.73968 -0.65139,-0.105709 -3.70612,-1.554037 -6.78827,-3.218513 -6.33748,-3.422464 -26.52514,-13.273301 -65.536,-31.97916 L 99.338946,15.357943 68.938134,30.78478 C 13.631951,58.8498 1.6364682,64.877047 1.087377,64.877047 c -0.29896631,0 -0.64113386,-0.388704 -0.76037236,-0.863788 z"
       id="path1241"
       transform="scale(0.75)" />
  </g>
  <g
     id="g1541"
     style="display:inline">
    <path
       style="display:inline;fill:#ffffff;stroke-width:0.134168"
       d="m 111.96333,102.83287 c -14.254193,-0.20391 -20.95416,-0.72264 -22.629015,-1.75201 -0.600405,-0.36902 -0.71625,-0.84724 -0.71625,-2.956875 0,-1.022085 -0.0231,-1.858335 -0.0513,-1.858335 -0.0282,0 -1.28091,0.785497 -2.783768,1.745543 -1.502865,0.960044 -3.155205,1.920974 -3.671872,2.135397 -2.22765,0.92452 -5.14632,1.14674 -13.68538,1.04198 -9.795118,-0.12016 -13.973581,-0.5544 -23.479427,-2.44003 -6.281366,-1.246013 -6.907731,-1.334025 -9.52594,-1.338532 -2.204397,-0.0038 -2.331925,0.01125 -3.804201,0.447997 -1.138978,0.337897 -1.679288,0.434347 -2.141396,0.38226 -1.282677,-0.144577 -1.409667,-1.04973 -0.441995,-3.15042 0.905079,-1.964812 0.886874,-2.347845 -0.189484,-3.986625 -0.330506,-0.503205 -0.60092,-1.03782 -0.60092,-1.18803 0,-0.150907 0.290885,-0.553485 0.650115,-0.899737 2.549922,-2.457795 7.566378,-2.47176 22.158472,-0.06165 7.070949,1.167862 11.108077,1.657357 16.033094,1.943977 6.943335,0.404085 12.646067,-0.21048 15.759977,-1.69839 1.338262,-0.639457 2.975437,-2.255587 3.628215,-3.581565 0.784245,-1.593022 0.700732,-2.747025 -0.295568,-4.084522 -0.71394,-0.958433 -0.912975,-1.482878 -0.91209,-2.4033 7.5e-4,-1.072635 0.213008,-1.782038 0.532493,-1.782038 0.14844,0 0.849982,0.637058 1.704337,1.547678 1.539645,1.641037 2.429085,2.343202 2.968178,2.343202 0.188347,0 0.55254,-0.20133 0.84948,-0.46959 0.44937,-0.405982 0.611497,-0.46959 1.196895,-0.46959 0.95055,0 1.38348,0.267255 1.789447,1.104668 0.953933,1.967692 0.75444,6.066742 -0.524107,10.769212 -0.87795,3.229095 -1.540725,5.889262 -1.540725,6.183982 0,0.242228 0.09833,0.306653 0.57021,0.37359 1.82787,0.259275 24.667085,1.591703 24.805475,1.447143 0.0467,-0.0488 0.33599,-1.296303 0.64277,-2.772153 0.30678,-1.47585 0.65105,-3.12579 0.76504,-3.666532 0.11399,-0.540735 0.39906,-1.353698 0.6335,-1.80657 0.60577,-1.17018 1.10854,-1.438148 4.73751,-2.52498 1.66306,-0.498075 3.05954,-0.94137 3.10327,-0.985103 0.0437,-0.04372 0.33944,-1.753515 0.65712,-3.799515 1.35082,-8.699947 1.62818,-11.702794 1.3918,-15.067917 -0.48284,-6.873539 -2.5737,-15.280624 -4.80232,-19.309493 -2.21998,-4.013267 -4.59958,-6.216462 -9.21468,-8.531617 -2.16762,-1.08738 -2.99662,-1.633757 -3.75869,-2.477275 -0.61297,-0.678482 -0.80446,-1.089251 -0.70063,-1.502935 0.10234,-0.40774 0.59924,-0.636652 1.382,-0.636652 1.24423,0 5.11515,1.566186 7.04563,2.850681 3.28267,2.184209 7.02127,6.147944 9.14613,9.696889 1.45467,2.429579 2.96863,7.690572 4.77386,16.589113 1.05084,5.179901 1.26077,6.494846 1.2747,7.984429 0.0134,1.425417 -0.14537,1.749298 -1.14289,2.332235 -1.24276,0.726255 -1.44097,1.422225 -1.60259,5.627152 -0.15452,4.02006 -0.32951,5.014718 -1.16232,6.606645 -0.83878,1.603343 -2.33568,2.813288 -5.15649,4.16799 -1.39085,0.667965 -2.41215,1.482053 -2.78815,2.222476 -0.42291,0.832814 -0.6773,2.616502 -0.897,6.289572 l -0.0903,1.50939 -1.62446,-0.0231 c -0.89346,-0.0127 -4.61306,-0.0658 -8.26579,-0.1181 z"
       id="path496" />
    <path
       style="display:inline;fill:#ffffff;stroke-width:0.134168"
       d="m 59.916595,88.196565 c -0.517141,-0.481793 -0.70243,-1.157303 -0.825777,-3.01053 -0.122931,-1.846988 -0.223542,-2.298495 -0.577677,-2.592398 -0.218396,-0.181252 -0.364218,-0.172777 -1.953426,0.113603 -0.643951,0.11604 -1.242457,0.118207 -2.347943,0.0085 -2.555553,-0.253598 -3.837883,-0.6588 -4.564378,-1.442288 -0.450319,-0.485647 -0.584973,-0.930217 -0.940667,-3.105682 l -0.298572,-1.826093 -0.295806,0.670838 c -1.694496,3.842857 -2.498874,5.286277 -3.340575,5.994517 -0.827589,0.696375 -3.659374,1.064775 -6.071262,0.789855 -1.797532,-0.204892 -2.768046,-0.45576 -4.018043,-1.038615 -1.222069,-0.569827 -2.1142,-0.634125 -2.664174,-0.192007 -1.237474,0.994792 -2.348493,1.418505 -3.474633,1.325115 -0.517456,-0.0429 -0.799136,-0.13713 -0.925128,-0.309428 -0.259187,-0.354465 -0.22093,-1.535205 0.09766,-3.01398 0.513483,-2.383417 0.519138,-2.380792 -0.724302,-0.335422 -1.548078,2.54649 -2.8336,3.779452 -3.820202,3.664012 -0.49054,-0.05737 -0.928339,-0.75981 -1.042359,-1.672395 -0.407407,-3.260775 1.990876,-10.831167 4.311065,-13.608252 1.252968,-1.499704 2.7612,-1.875054 3.288458,-0.81839 0.107606,0.215652 0.208685,1.058948 0.252198,2.10408 l 0.07261,1.744186 0.907981,-1.762803 c 1.597812,-3.102077 2.761168,-3.681806 3.578007,-1.783013 0.243612,0.566292 0.316883,1.078309 0.403789,2.8217 0.06807,1.365493 0.166564,2.202636 0.274447,2.332627 0.269614,0.324864 0.712636,0.240105 1.858504,-0.355571 1.281888,-0.666385 2.249356,-0.808207 3.154704,-0.462451 1.256295,0.479783 1.710159,1.368153 1.823883,3.569975 l 0.07969,1.542937 0.717226,-1.466842 c 1.102999,-2.255802 2.381157,-3.344949 4.425717,-3.771253 1.093947,-0.228094 1.935181,-0.115512 2.939445,0.393388 0.833148,0.422188 2.180166,0.66552 3.069226,0.55444 0.866788,-0.108299 1.479027,0.161354 1.597752,0.703707 0.140332,0.641065 0.178267,0.701943 0.437393,0.701943 0.281758,0 1.016799,-0.467672 1.834203,-1.167015 1.382824,-1.183098 3.691836,-1.782474 4.346135,-1.128174 0.393735,0.393735 0.362527,0.898704 -0.18839,3.048239 -0.259081,1.010857 -0.44693,1.862062 -0.417443,1.891545 0.02949,0.02948 0.786437,-0.587445 1.682108,-1.370963 2.768458,-2.421795 4.556926,-3.56919 5.870387,-3.766156 0.848128,-0.127185 1.246864,0.0255 1.886764,0.722485 0.569004,0.619761 0.580629,0.624797 1.556331,0.674067 0.586697,0.02962 1.422789,-0.04005 2.073735,-0.172818 0.873515,-0.178163 1.151913,-0.190212 1.398138,-0.0605 0.436237,0.229797 0.469942,0.313017 0.573225,1.415185 0.08517,0.908874 0.116685,0.987452 0.39603,0.987452 0.335025,0 2.047312,-1.393986 2.742375,-2.232587 0.23607,-0.284821 0.593085,-0.849923 0.793372,-1.255782 0.3228,-0.65411 0.369428,-0.920825 0.41058,-2.348224 0.08249,-2.861466 -0.550852,-5.332103 -1.647757,-6.427778 -0.302115,-0.301776 -0.775305,-0.717676 -1.05153,-0.924221 -1.036283,-0.77487 -1.62645,-2.571784 -1.61724,-4.924105 0.01028,-2.620049 0.703687,-4.591275 1.908667,-5.425802 1.651418,-1.143717 2.000355,-1.799387 2.17752,-4.091685 0.23505,-3.04122 1.125758,-4.885439 2.91363,-6.032716 0.999863,-0.64161 1.687215,-0.825032 3.84453,-1.025936 2.395103,-0.223048 3.204668,-0.540235 3.886905,-1.52289 0.22356,-0.322003 0.67872,-0.873525 1.011465,-1.225604 0.94599,-1.000951 1.55199,-1.136011 5.097158,-1.136011 2.752312,0 2.913817,0.01438 3.521396,0.313593 0.80928,0.39855 1.04381,0.704251 1.64293,2.141487 0.76949,1.845953 1.2179,2.209379 2.25214,1.825319 1.87199,-0.695156 2.27079,-0.774797 3.13686,-0.626443 1.18302,0.202641 2.2074,0.71328 3.08493,1.537799 1.79709,1.688517 2.51745,3.697959 2.12366,5.923947 -0.25828,1.459988 -0.25156,2.366771 0.0204,2.75507 0.12035,0.171825 0.70901,0.538183 1.30814,0.814127 1.28392,0.591347 1.84413,1.033208 2.30328,1.816688 0.93823,1.600967 0.98267,5.774246 0.0803,7.542982 -0.38507,0.754807 -1.22895,1.460893 -2.36445,1.978351 -1.48332,0.675974 -1.69364,1.16269 -1.41482,3.274126 0.29055,2.200246 -0.25679,3.796935 -1.84359,5.37804 -1.599,1.593264 -3.18739,2.149554 -5.33915,1.869898 -0.66831,-0.08686 -1.43529,-0.116621 -1.70439,-0.06613 -0.63312,0.118775 -1.26336,0.849227 -1.70925,1.981032 -0.40455,1.026893 -1.11433,1.77894 -1.904864,2.018288 -0.786308,0.238072 -5.856765,0.242085 -6.63597,0.0052 -0.921795,-0.280178 -1.811453,-0.974213 -2.528085,-1.972208 -0.368963,-0.513832 -0.948998,-1.223245 -1.288973,-1.57648 -0.760867,-0.79055 -1.181205,-0.838446 -1.946152,-0.221751 -0.726045,0.585333 -1.473915,0.895642 -2.513318,1.042839 -1.506592,0.21336 -2.144167,0.910582 -3.127605,3.420187 -1.117057,2.850585 -2.13405,3.789247 -4.648102,4.29012 C 75.05409,83.07966 72.43384,83.01741 71.63806,82.495995 71.245884,82.23903 71.148656,82.00779 71.053051,81.104625 70.988056,80.49063 70.93123,80.3667 70.714681,80.3667 c -0.154765,0 -0.498516,0.299107 -0.848073,0.737925 -1.696258,2.129423 -2.176686,2.523975 -3.487329,2.86395 -0.915417,0.237458 -1.793179,0.917378 -3.33805,2.58567 -1.720022,1.857435 -2.470394,2.251823 -3.124651,1.64229 z m 38.07584,-15.588509 c 3.501865,-3.028467 4.196515,-3.330775 7.620545,-3.316371 l 2.16933,0.0091 0.29487,-0.370442 c 0.28283,-0.355304 0.29124,-0.447202 0.20604,-2.248797 -0.15182,-3.210007 0.11287,-3.865111 2.59864,-6.431684 2.63422,-2.71985 2.63138,-2.936891 -0.0742,-5.67206 -1.28315,-1.2972 -1.7585,-1.879548 -2.09666,-2.56864 l -0.43731,-0.891118 0.0369,-2.445197 c 0.0485,-3.215955 0.18012,-3.056571 -2.4381,-2.95364 -3.31911,0.130485 -4.23711,-0.203828 -6.504252,-2.368716 -2.410733,-2.301998 -2.527395,-2.391818 -2.871345,-2.21071 -0.164093,0.0864 -1.019265,0.696375 -1.900388,1.355487 -2.51679,1.882661 -4.091347,2.544425 -6.809475,2.861935 -0.869917,0.101616 -1.76808,0.281154 -1.995915,0.398973 -0.523162,0.270539 -0.73887,0.803006 -0.840495,2.074749 -0.158647,1.985225 -1.236165,4.202937 -3.515587,7.235655 -1.788098,2.379013 -1.971428,2.691034 -1.91475,3.258755 0.0366,0.3667 0.165667,0.482329 1.114755,0.998794 2.481405,1.350309 3.90045,3.927678 4.283467,7.77991 0.236648,2.380101 0.25332,2.398248 2.089515,2.274435 0.944048,-0.06366 1.483373,-0.03248 2.079608,0.120247 1.286625,0.329551 3.337237,1.410927 5.43381,2.865484 1.069995,0.742336 1.997985,1.352283 2.062207,1.355438 0.0642,0.0032 0.69816,-0.49707 1.408763,-1.11161 z"
       id="path498" />
    <path
       style="display:inline;fill:#ffffff;stroke-width:0.265165"
       d="M 71.992309,144.02524 C 60.733834,140.05336 26.089633,124.88575 7.0931649,115.61168 l -6.96058238,-3.39815 v -1.54906 c 0,-1.81693 0.0370015,-1.83086 2.44672318,-0.92104 2.9316971,1.1069 17.9047343,7.58916 34.5438003,14.95502 26.28611,11.63645 31.155036,13.68403 34.852853,14.65709 2.362101,0.62157 3.394796,0.64602 5.385446,0.12752 1.565175,-0.40767 17.923155,-6.92667 30.295605,-12.07344 23.34701,-9.71203 41.0079,-16.70321 42.19508,-16.70321 0.0543,0 0.0987,0.75879 0.0987,1.68619 v 1.6862 l -17.69977,7.58219 c -32.730275,14.02095 -53.096728,22.27776 -56.94419,23.08587 -0.557412,0.11708 -1.549416,-0.0989 -3.314561,-0.72162 z"
       id="path917" />
    <path
       style="display:inline;fill:#ffffff;stroke-width:0.09375"
       d="M 0.06867473,44.32749 0.09375,42.014354 3.046875,40.284316 C 7.1687918,37.869562 9.7295805,36.505366 19.453125,31.5443 25.84844,28.281337 55.697515,13.38038 59.71875,11.443298 68.214109,7.3509718 71.736625,5.8948319 74.149864,5.4777537 c 0.886323,-0.1531821 2.367768,-0.062616 3.185913,0.1947667 1.853505,0.5830965 7.213485,2.8867466 13.367348,5.7451116 8.911927,4.139439 14.487595,6.870937 46.898435,22.975344 l 9.53906,4.739803 v 2.259455 c 0,1.242702 -0.0317,2.240879 -0.0703,2.218173 -3.6652,-2.151989 -8.34659,-4.504056 -22.24223,-11.175111 C 99.095737,20.081617 79.37493,10.945609 75.963067,9.7977007 75.345045,9.58977 75.319822,9.588666 74.706574,9.7427085 70.853731,10.710511 53.963683,18.624037 28.453125,31.413923 11.755148,39.785564 3.9269054,43.977829 1.1283724,46.047168 c -0.44141887,0.326401 -0.86607324,0.593457 -0.94367636,0.593457 -0.12249393,0 -0.13779058,-0.304972 -0.11602131,-2.313135 z"
       id="path913" />
    <path
       style="display:inline;fill:#ffffff;stroke-width:0.0662912"
       d="m 149.32106,45.20407 c -1.62202,-1.375193 -5.89411,-3.731226 -13.50889,-7.450081 -9.24913,-4.51703 -30.47304,-14.632055 -40.14199,-19.131123 l -2.83863,-1.320847 5.106532,-0.01698 5.106528,-0.01698 2.73709,1.331427 c 2.53957,1.235344 9.71543,4.794113 34.48705,17.103364 l 9.68208,4.81112 0.0174,2.530637 c 0.02,2.924994 0.0678,2.765622 -0.64713,2.159466 z"
       id="path959" />
    <path
       style="display:inline;fill:#ffffff;stroke-width:0.134168"
       d="m 94.588552,67.757952 c -3.938107,-0.72962 -6.832642,-3.436726 -8.06721,-7.54485 -0.469177,-1.561219 -0.530212,-4.091681 -0.128257,-5.3174 0.529845,-1.615688 2.12724,-3.691377 4.399207,-5.716413 2.089433,-1.862342 3.007013,-2.183112 5.463548,-1.909959 1.85004,0.205715 3.47535,0.669553 5.1082,1.457803 1.07223,0.517613 1.45785,0.798865 2.4288,1.771456 0.95663,0.958251 1.26146,1.374327 1.78081,2.430749 0.83624,1.701017 1.0657,2.838597 0.98777,4.897138 -0.0696,1.838456 -0.4776,3.28952 -1.39562,4.963439 -0.67201,1.225338 -2.48149,3.064158 -3.73468,3.795219 -2.08432,1.215918 -4.435128,1.618847 -6.842568,1.172818 z"
       id="path494" />
    <path
       style="display:inline;fill:#ffffff;stroke-width:0.1875"
       d="M 74.4375,137.81496 C 74.128125,137.67845 60.332812,131.51764 43.78125,124.12427 -0.25161839,104.45537 1.1319322,105.06133 0.57525485,105.20105 L 0.09375,105.3219 V 77.108827 48.895751 l 0.421875,0.07608 c 0.4563432,0.0823 13.379856,-6.36 41.123662,-20.499907 8.670358,-4.418934 19.6035,-9.973292 24.295873,-12.343017 l 8.531586,-4.308592 2.235379,1.052673 c 3.72243,1.752949 34.094405,16.333819 43.204125,20.741282 14.37091,6.952932 20.57584,10.026789 24,11.889345 3.66836,1.995394 4.82941,2.490906 5.52494,2.357948 0.46814,-0.08949 0.47506,-0.07345 0.47506,1.101935 0,0.86583 -0.0682,1.19275 -0.2487,1.19275 -0.47741,0 -5.31842,-2.027987 -9.97736,-4.179705 C 134.82466,43.734037 126.52323,39.824776 113.71875,33.750949 91.93647,23.418489 75.317475,16.03125 73.854915,16.03125 73.292038,16.03125 39.24585,32.967109 24.84375,40.411252 12.155356,46.969618 9.7471297,48.258586 5.4583132,50.787026 L 1.9166265,52.875 2.0374243,67.59375 c 0.066439,8.095312 0.1761787,19.244782 0.2438664,24.776595 l 0.1230687,10.057855 0.6728202,0.32246 c 2.4284058,1.16387 49.6249204,22.07868 56.1892674,24.89988 12.084795,5.19376 15.132297,6.38245 16.081283,6.27254 1.194525,-0.13835 9.841597,-3.6099 28.15227,-11.30233 10.39462,-4.36686 41.29655,-17.49401 44.30528,-18.82091 0.95854,-0.42272 1.82338,-0.76859 1.92188,-0.76859 0.0985,0 0.17909,0.55213 0.17909,1.22697 0,0.88327 -0.0656,1.21295 -0.23438,1.17692 -0.12891,-0.0275 -1.20468,0.42295 -2.39062,1.00106 -3.08104,1.5019 -11.07086,5.11088 -18.97373,8.57038 -10.62891,4.65283 -53.175798,23.08895 -53.245285,23.07188 -0.0342,-0.008 -0.31536,-0.12699 -0.624735,-0.2635 z"
       id="path933" />
  </g>
</svg>
