<?xml version="1.0" standalone="no"?>
<!DOCTYPE svg PUBLIC "-//W3C//DTD SVG 20010904//EN"
 "http://www.w3.org/TR/2001/REC-SVG-20010904/DTD/svg10.dtd">
<svg version="1.0" xmlns="http://www.w3.org/2000/svg"
 width="150.000000pt" height="150.000000pt" viewBox="0 0 150.000000 150.000000"
 preserveAspectRatio="xMidYMid meet">

<g transform="translate(0.000000,150.000000) scale(0.100000,-0.100000)"
fill="#000000" stroke="none">
<path d="M0 1290 l0 -210 53 31 c28 17 191 100 362 185 278 139 314 155 349
150 23 -2 183 -76 388 -178 l348 -173 0 202 0 203 -750 0 -750 0 0 -210z"/>
<path d="M368 1227 c-268 -133 -367 -187 -367 -199 -1 -10 2 -18 5 -18 3 0
171 84 372 187 l367 186 315 -151 c173 -83 340 -164 370 -181 64 -36 70 -37
70 -13 0 12 -55 43 -208 116 -284 137 -513 243 -537 249 -13 4 -144 -56 -387
-176z"/>
<path d="M417 1181 c-173 -88 -334 -171 -356 -186 l-41 -25 2 -247 3 -247 354
-158 c195 -87 362 -158 371 -158 13 0 225 88 703 292 l47 21 0 261 0 261 -48
19 c-26 11 -159 73 -297 139 -214 102 -404 187 -418 187 -2 0 -146 -72 -320
-159z m603 -76 c8 -21 13 -24 27 -17 40 21 91 -27 79 -74 -5 -18 -2 -26 11
-31 25 -9 33 -23 33 -58 0 -35 -8 -49 -32 -58 -13 -5 -16 -13 -12 -34 7 -38
-33 -78 -71 -71 -21 4 -28 1 -35 -18 -8 -20 -16 -24 -54 -24 -36 0 -47 5 -61
26 -12 19 -20 23 -28 15 -6 -6 -19 -11 -28 -11 -11 0 -22 -13 -29 -34 -11 -35
-31 -46 -82 -46 -20 0 -28 5 -28 17 0 14 -3 13 -16 -5 -8 -12 -21 -22 -29 -22
-7 0 -23 -12 -34 -26 -24 -31 -41 -24 -41 16 0 22 -4 28 -15 24 -8 -4 -31 -3
-49 0 -28 5 -35 12 -38 34 l-4 27 -13 -30 c-7 -16 -18 -33 -24 -37 -18 -11
-75 -10 -99 3 -14 8 -23 8 -31 0 -6 -6 -19 -11 -29 -11 -15 0 -17 5 -13 28 l6
27 -16 -27 c-9 -16 -23 -28 -32 -28 -36 0 11 161 49 168 13 3 18 -3 19 -20 l0
-23 11 23 c17 35 38 28 38 -13 0 -32 2 -34 19 -24 25 16 51 5 52 -23 l0 -23
11 23 c12 25 49 39 70 26 7 -5 21 -7 31 -6 9 2 17 -2 17 -9 0 -8 6 -6 18 4 10
10 27 17 36 17 15 0 17 -5 12 -26 l-7 -27 31 27 c33 27 55 33 65 16 3 -6 17
-7 31 -4 19 5 24 2 24 -12 0 -16 2 -15 23 4 18 17 22 30 19 62 -3 27 -11 44
-23 51 -28 14 -27 94 1 109 13 7 20 21 20 38 0 44 26 72 65 72 24 0 38 6 45
20 8 15 21 20 56 20 38 0 46 -3 54 -25z m159 6 c41 -21 92 -74 115 -119 7 -15
21 -63 31 -107 28 -130 29 -144 11 -151 -12 -5 -16 -20 -16 -58 0 -60 -13 -83
-61 -105 -30 -14 -34 -21 -37 -59 l-3 -42 -112 1 c-62 1 -137 4 -167 7 -51 7
-55 9 -55 33 l1 26 -39 -25 c-35 -23 -47 -25 -155 -25 -84 0 -149 6 -229 22
-88 19 -118 21 -142 13 -36 -13 -47 -2 -31 28 9 16 8 25 -1 37 -11 13 -10 18
6 29 26 19 86 18 228 -7 164 -28 284 -24 321 10 28 26 33 50 15 68 -6 6 -9 19
-7 29 3 17 6 16 28 -9 16 -18 26 -23 31 -16 4 7 14 9 23 6 21 -8 21 -67 1
-132 -8 -27 -13 -50 -12 -51 1 -1 59 -5 128 -9 l125 -7 10 47 c8 45 12 49 49
59 l40 12 13 84 c10 67 10 100 1 155 -23 135 -58 194 -140 230 -39 18 -53 45
-24 45 9 0 33 -9 54 -19z"/>
<path d="M938 1068 c-14 -11 -40 -21 -57 -22 -26 -1 -31 -5 -31 -27 0 -14 -14
-44 -31 -65 -29 -37 -30 -39 -11 -47 23 -10 42 -48 42 -81 0 -19 4 -22 23 -19
13 3 37 -6 58 -20 l35 -24 28 24 c20 17 38 23 60 21 29 -3 31 -1 28 29 -2 25
3 39 22 57 32 29 32 33 0 63 -19 18 -25 31 -22 56 3 31 2 32 -29 29 -24 -2
-39 3 -58 22 -14 14 -27 26 -28 25 -1 0 -14 -9 -29 -21z m98 -69 c66 -62 20
-179 -71 -179 -60 0 -105 47 -105 111 0 22 10 41 35 66 32 32 40 35 76 30 23
-3 52 -15 65 -28z"/>
<path d="M0 431 c0 -12 5 -21 10 -21 6 0 149 -61 318 -136 414 -184 403 -180
454 -165 22 7 186 73 363 147 178 74 330 134 339 134 11 0 16 9 16 31 0 24 -3
29 -12 21 -7 -5 -134 -63 -283 -127 -148 -64 -311 -135 -362 -157 l-92 -40
-363 162 c-200 89 -369 165 -375 167 -8 3 -13 -3 -13 -16z"/>
<path d="M0 188 l0 -188 750 0 750 0 0 179 0 179 -162 -70 c-345 -148 -567
-238 -591 -238 -26 0 -458 185 -639 274 l-108 53 0 -189z"/>
</g>
</svg>
