<?xml version="1.0" standalone="no"?>
<!DOCTYPE svg PUBLIC "-//W3C//DTD SVG 20010904//EN"
 "http://www.w3.org/TR/2001/REC-SVG-20010904/DTD/svg10.dtd">
<svg version="1.0" xmlns="http://www.w3.org/2000/svg"
 width="120.000000pt" height="120.000000pt" viewBox="0 0 120.000000 120.000000"
 preserveAspectRatio="xMidYMid meet">
<metadata>
Created by potrace 1.16, written by Peter Selinger 2001-2019
</metadata>
<g transform="translate(0.000000,120.000000) scale(0.100000,-0.100000)"
fill="#000000" stroke="none">
<path d="M293 1014 c-181 -90 -293 -151 -293 -160 0 -12 4 -13 28 -1 15 7 147
74 295 147 l267 134 38 -14 c20 -7 156 -71 301 -141 145 -71 266 -129 268
-129 1 0 3 6 3 13 0 14 -573 297 -600 297 -8 0 -147 -66 -307 -146z"/>
<path d="M297 949 l-297 -149 2 -217 3 -217 105 -47 c58 -26 128 -58 155 -70
28 -13 93 -41 145 -64 52 -23 117 -52 143 -64 l48 -22 82 36 c45 20 111 49
147 65 36 16 130 57 210 90 132 56 179 80 156 80 -5 0 -27 -9 -50 -20 -36 -17
-199 -86 -464 -198 l-83 -34 -292 129 -292 130 -3 199 c-1 110 1 204 5 209 8
11 534 278 570 289 13 4 89 -28 239 -100 285 -139 366 -175 372 -169 3 2 -55
33 -129 69 -74 35 -210 100 -302 145 -93 44 -169 81 -170 80 -1 0 -136 -67
-300 -150z"/>
<path d="M730 886 c0 -21 -18 -30 -34 -17 -19 16 -60 -30 -51 -59 5 -16 2 -23
-14 -27 -30 -8 -31 -78 -1 -86 16 -4 19 -11 15 -30 -4 -14 -2 -28 4 -31 6 -4
-1 -17 -15 -31 -29 -29 -36 -31 -28 -10 4 9 0 15 -10 15 -9 0 -16 -5 -16 -12
0 -6 -6 -3 -14 8 -14 17 -17 18 -42 4 -31 -17 -63 -95 -46 -112 7 -7 14 -3 21
11 7 12 20 21 31 21 11 0 22 11 28 28 10 25 10 25 11 4 1 -21 5 -23 38 -20 33
3 39 7 47 36 5 19 14 31 21 28 7 -2 17 0 23 6 13 13 32 2 32 -18 0 -10 12 -14
40 -14 28 0 40 4 40 14 0 21 18 30 34 17 18 -15 71 40 55 56 -13 13 -4 33 17
33 10 0 14 12 14 40 0 28 -4 40 -14 40 -21 0 -30 18 -17 33 15 19 -36 72 -54
57 -16 -14 -35 -5 -35 16 0 10 -12 14 -40 14 -28 0 -40 -4 -40 -14z m60 -19
c0 -18 45 -38 56 -27 5 5 15 5 24 0 11 -7 12 -12 3 -21 -14 -14 3 -59 24 -59
7 0 13 -9 13 -20 0 -11 -6 -20 -12 -20 -20 0 -38 -46 -24 -60 8 -8 7 -13 -4
-20 -9 -6 -18 -6 -24 0 -10 10 -44 -5 -64 -29 -10 -12 -15 -13 -19 -3 -8 19
-61 44 -68 32 -9 -15 -27 -1 -21 16 7 19 -14 64 -31 64 -17 0 -17 27 1 37 19
12 37 49 30 66 -6 17 11 32 20 18 7 -11 66 16 66 30 0 5 7 9 15 9 8 0 15 -6
15 -13z"/>
<path d="M715 795 c-51 -50 -15 -135 58 -135 45 0 77 34 77 82 0 70 -86 103
-135 53z"/>
<path d="M890 891 c0 -5 11 -11 23 -15 33 -8 75 -43 92 -76 22 -43 48 -179 36
-193 -5 -7 -9 -34 -9 -61 0 -55 -6 -63 -47 -68 -27 -3 -30 -7 -33 -40 l-3 -38
-110 0 c-60 0 -109 3 -109 6 0 3 7 27 16 55 16 49 13 99 -7 99 -7 0 -8 -12 -4
-32 l6 -33 -14 30 c-15 33 -47 64 -47 47 0 -6 5 -14 10 -17 20 -12 10 -54 -17
-72 -34 -23 -154 -22 -261 1 -40 9 -95 16 -122 16 -50 0 -74 -15 -49 -31 11
-6 11 -11 1 -21 -6 -6 -12 -18 -12 -25 0 -10 5 -10 25 -1 20 9 45 7 125 -11
74 -17 122 -22 189 -20 84 4 92 6 122 34 31 30 31 30 24 5 -4 -14 -8 -29 -9
-35 0 -6 51 -11 132 -13 l132 -3 0 36 c0 25 5 37 18 41 57 18 62 25 62 81 0
40 4 53 15 53 8 0 15 6 15 14 0 7 -7 33 -15 56 -8 23 -15 54 -15 69 -1 44 -51
123 -95 148 -42 24 -65 29 -65 14z"/>
<path d="M196 618 c-8 -24 -17 -52 -18 -62 -5 -29 21 -31 32 -2 12 33 22 34
14 1 -7 -28 7 -33 27 -9 11 13 14 13 20 1 6 -9 23 -14 51 -13 36 1 43 5 48 26
7 32 31 39 28 8 -3 -20 2 -23 33 -26 33 -3 38 0 48 29 6 18 11 36 11 40 0 17
-28 8 -44 -13 -12 -18 -14 -19 -9 -4 5 16 3 18 -15 14 -12 -4 -22 -2 -22 3 0
5 -9 9 -20 9 -13 0 -25 -12 -35 -37 -8 -20 -18 -33 -22 -30 -3 4 -1 13 6 20
14 17 4 47 -14 47 -8 0 -21 -7 -30 -16 -15 -16 -16 -14 -10 20 8 42 -10 51
-25 11 -5 -14 -12 -25 -15 -25 -3 0 -3 11 1 25 11 44 -23 30 -40 -17z"/>
<path d="M2 313 c2 -10 70 -46 193 -100 105 -46 235 -104 291 -128 55 -25 106
-45 113 -45 10 0 476 195 574 241 15 6 27 18 27 25 0 9 -34 -1 -102 -30 -455
-193 -492 -207 -515 -201 -13 3 -130 53 -261 112 -350 156 -324 146 -320 126z"/>
</g>
</svg>
